<svg version="1" xmlns="http://www.w3.org/2000/svg" width="666.667" height="666.667" viewBox="0 0 500.000000 500.000000"><path d="M222.9 67.5C129.5 80.3 60 159.6 60 253.5c0 71 40.3 136 104 168 45.9 23 101.4 26 149.5 8 86.6-32.4 136.1-121.6 118.4-213.2-4-20.6-14.1-46-25.4-63.5-31.2-48.4-81.4-79.6-137.7-85.7-12.8-1.4-33.9-1.2-45.9.4zM226 206c5.8 3.3 10.5 9.6 11.9 16 .7 3.1 1.1 17.5 1.1 36.1v31l-2.5 2.4c-2.3 2.4-2.8 2.5-17.8 2.5-14 0-15.7-.2-18-2l-2.6-2-.3-30.8c-.3-34.2-.6-35.9-6.9-38.1-5.2-1.8-19.8-1.4-23.9.7-5.5 2.7-5.9 5-5.9 38l-.1 29.3-2.5 2.4c-2.3 2.4-2.8 2.5-17.8 2.5-14.1 0-15.7-.2-18.1-2.1l-2.6-2v-32.3c0-38.1.4-40.4 8-47.7 2.8-2.8 6.3-5.1 8.6-5.7 2.5-.7 18.7-1 44.4-.9l40.5.2 4.5 2.5zm130.5-.1c2.3.8 5.9 3.3 8.6 6 6.6 6.9 7.9 12.3 7.9 33.9 0 22.7 1.5 21.2-20.8 21.2-12.9 0-17.3-.3-18.8-1.4-1.7-1.3-2-3.1-2.5-18.3-.7-23.9-1.8-25.3-19.1-25.3-10.8 0-14.9 1.5-16.9 6.1-1.9 4.6-2 40.9-.1 45.4 2.4 5.8 3.2 6 33.2 6.5 25.7.5 27.8.6 31.5 2.7 8.7 4.6 12.6 12.3 13.3 25.6.9 17.1-4.8 28.4-16.1 32.4-4.8 1.6-9.3 1.8-53.5 1.8h-48.4l-1.9-2.4c-2.7-3.3-2.5-9.8.3-12.8l2.1-2.3H288c21.4 0 33.8-.4 35.9-1.1 7.4-2.6 9.1-17.4 2.6-23.8l-2.5-2.6-27.8-.5c-31.2-.6-32.3-.8-38.6-8.2-5.9-6.9-6.8-12.6-6.4-40.8.3-22.2.6-24.9 2.4-29 2.7-5.7 9.1-11.6 14.1-12.9 2.1-.5 4.7-1.2 5.8-1.4 1.1-.3 19.3-.4 40.5-.3 28 .2 39.6.6 42.5 1.5z"/></svg>